<svg width="447" height="353" viewBox="0 0 447 353" fill="none" xmlns="http://www.w3.org/2000/svg">
<g clip-path="url(#clip0_6_31)">
<path d="M207 14H219.75L226.75 14.5L237 15.75L244 17L252.25 18.75L262.25 21.5L271.75 24.75L279 27.75L286 31L292.75 34.5L299.5 38.5L304.25 41.5L309.75 45.25L313.75 48.25L317 50.75L323.5 56.25L327.25 59.75L333 65.5L334.75 67.5L337.5 70.5L339.75 73.25L343.25 77.5L346.25 81.5L349.25 85.75L352.5 90.75L355.5 95.75L358.75 101.75L360.75 105.75L363.75 112L366.5 118.75L368.75 124.75L371.25 132.5L374 143.5L376 154.75L377 162.75L377.5 169.25L377.75 174.75V185.25L377.25 194.25L376.25 203L374.75 212L372.25 222.5L370.25 229.25L367.75 236.75L365 243.75L362.25 250L358 258.75L354.5 265L351 270.5L348.5 274.25L345.25 278.75L342.75 282L340.75 284.5L338.5 287.25L336 290L334.25 292L332 294.5L324.5 302L322.5 303.75L319.5 306.5L316.75 308.75L313 311.75L308.5 315L305.25 317.25L301.5 319.75L297 322.5L291.75 325.5L286 328.5L279.75 331.5L275 333.5L267.75 336.25L258.75 339.25L250.25 341.5L241.75 343.25L233.75 344.5L224.25 345.5L220.5 345.75H203.25L193 344.75L183.5 343.25L175 341.5L167.5 339.5L158.75 336.75L151.5 334L144 330.75L138.25 328L132.75 325L126.75 321.5L121.25 318L117 315L112.25 311.5L108.25 308.25L105.5 306L101.5 302.25L100.75 301.75V301.25L99.75 300.75L92.75 293.75L91 291.75L87.75 288.25L85.5 285.5L82.5 281.75L78.75 276.75L75.25 271.75L71.5 265.75L68.5 260.5L64.75 253.5L61.75 247L59.25 241L57 235L54.25 226.75L51.75 217.5L50 209L48.75 200.75L48 194L47.5 185.75V174L48 165.75L49 156.75L50.5 148L52.5 139L55 130.25L58 121.25L60.25 115.25L64.25 106.25L66.75 101L70 95.25L72.25 91.25L75 87L77.75 83L81.25 78.25L84.5 74.25L87.25 71L89.75 68.25L91.5 66.25L95.25 62.25L97 60.5L99 58.75L102.5 55.5L105.25 53.25L109.5 49.75L113.5 46.75L118 43.5L122.5 40.5L127.25 37.5L136 32.5L140 30.5L146.5 27.5L156 23.75L165.25 20.75L174.75 18.25L184.25 16.25L193 15L200.75 14.25L207 14ZM202.25 20L195 20.5L185.75 21.75L176.5 23.5L168.75 25.5L161.25 27.75L153.75 30.5L146.75 33.5L138.5 37.5L131.25 41.5L125.25 45.25L120.75 48.25L116.25 51.5L112.5 54.5L109 57.25L106.25 59.75L104.25 61.5L100.5 65L95 70.5L93.25 72.5L90.75 75.25L85.75 81.5L82.5 86L80 89.5L76.5 95L73 101L69.5 107.75L66.75 113.5L64 120.25L61 128.75L59 135.25L57 143.25L55.25 152.5L54 161.75L53.5 167L53.25 171.5V187.75L53.75 194.75L54.5 201.5L56 210.5L58 219.5L60 226.5L63 235.5L66.75 244.75L71 253.5L73.75 258.75L77 264.25L81 270.25L83.5 273.75L85.75 276.75L88.25 280L90.5 282.75L93.5 286.25L96.25 289.25L98.5 291.75L103.25 296.5L105.25 298.25L108.5 301.25L111.25 303.5L115.5 307L122.5 312L127.5 315.25L132.75 318.5L137.25 321L143 324L150.25 327.5L157 330.25L164 332.75L171.75 335L180.25 337L190 338.75L200.75 340L203.75 340.25H220.25L229.5 339.5L238.75 338.25L247.5 336.5L255.5 334.5L262 332.5L268.25 330.25L275 327.5L280 325.25L284.75 323L289.5 320.5L295.5 317L300.25 314L304.25 311.25L309 307.75L312.5 305L315.75 302.25L319.25 299.25L323.5 295.25L329.25 289.5L331 287.5L337 280.5L339.25 277.5L342.75 272.75L346.75 266.75L350 261.5L353.75 254.75L358.25 245.75L361.75 237.5L364.75 229L367.25 220.25L369 212.5L370.5 203.75L371.5 195L372 187V173L371.5 164.5L370.5 155.5L369 146.75L367.25 138.75L364.75 130L361.75 121.25L359.25 115.25L355.5 107L351.5 99.5L347.25 92.5L343.5 87L340 82.25L337.25 78.75L334.25 75.25L332 72.5L330.25 70.75L328.5 68.75L321.75 62L319.75 60.25L317.5 58.25L314.75 56L310.75 52.75L306.25 49.5L302.75 47L298 44L292.5 40.75L286 37.25L278.25 33.5L270.25 30.25L263.25 27.75L256.75 25.75L247.75 23.5L240.25 22L231.5 20.75L222.75 20H202.25Z" fill="black"/>
<path d="M234.75 50H236.5L238 51.25L238.25 52.25L237.5 54L234.25 58L231.25 62L229 64.75L226.25 67.75L225.25 69L223.25 70.75L220 73L216.5 74.5L211.75 75.25L202.5 76L194.25 76.5L183.75 77.5L179.5 78.5L175.75 80L169.75 83.5L166 85.75L160.5 89.5L154.75 93.5L150 97L146.75 99.5L144.75 101.25L144 102.25V103L145.5 103.75L147.75 104.5L150.5 102.75L153.75 100.25L158.75 96.5L163.25 93.25L168 90.25L175 86.25L179.5 83.75L185.25 81L189.75 79.75L192.75 79.25H196.25L197.25 80V81.5L196.25 82.5L187.5 84.75L183.25 86.5L179.25 88.5L172.75 92L166.75 95.5L163.25 97.75L158.5 101.25L154.25 104.5L152 106.5L151.75 107.75L152.5 109.25L153.5 109.75H155.25L157.25 109L160.75 103.75L162.75 101.75L165.25 99.75L168.75 97.5L174 94.5L178.75 92L183.5 90L186 89.25L188.5 89L189.75 89.75L190.25 90.5L190 91.75L189 92.5L182.25 95.25L176 98.25L170.25 101.5L167.25 103.5L164.75 105.75L163 107.5L162.25 109L166.5 108.75L171 107.5L177.75 104.75L182.25 102.75L189.25 100L195 98.25L201.5 96.75L204.5 96.25H206.75L207.75 97.25V99.25L206.5 100L201.25 101.5L191.25 104L187.25 105.5L184.25 107L184 107.75L185 109.25L187.5 110.75H190.75L197 109.25L205 107.25L210.25 106.25L216.25 105.5L222.5 104L226.5 102.5L229.75 100.75L233 98.25L236 95.25L239.5 90.5L241.25 87.75L243.25 85.25L245.75 82.75L247.75 81L250.5 78.5L252.5 76.75L255.5 74L258.75 71L270 59.75L271.75 57.75L273.75 56H276L277.25 57.25L277.5 58.75L276 60.75L258.5 78.25L256.5 80L253.25 83L251.25 84.75L247.25 88.5L245 91.25L242 95.75L239.5 99L238.5 100.25H238L237.5 101.25H237V102L244.5 104.25L250.75 106.5L259 110.25L268.25 114.75L276.25 118L281 119.5L288 121.25L297 122.75L299.5 123H311.25L317 122.25L326.25 120L327.25 120.5L327.75 121.5V123.25L325.5 124.5L322.25 125.75L318 127L313.25 127.75L311 128H300.25L291.25 127L282 125L275.25 123L269 120.5L264 118.25L255.75 114.25L247.5 110.75L238.25 107.75L233.5 106.5L231.25 106L226.5 108L222.5 109.25L215 110.5L206.75 111.75L200.25 113.25L192.75 115.25L189.75 115.75H187.25L184.75 115L182.5 113.5L180.75 111.5L179.75 109.5V109L176.25 110.5L170.5 112.5L167 113.25H162.75L161 112.5L160.75 112.25H159.25L156 113.75L153 114.25L150.5 113.75L148.5 112.5L147.25 111L146.5 109L146 109.25L145.75 110L139.5 112.5L129.75 116.25L117.25 121.25L111 123.5L104 125.5L99 126.5L96.75 126.25L96.25 125.25L96 123L97.75 122.25L106.75 119.75L114.75 117L124.5 113L133.75 109.25L140 106.75L139 105V102.5L140 100L141.75 97.75L144 95.5L149 91.75L153.25 88.75L157.75 85.5L161.25 83L165.5 80.25L171 77L175.75 74.5L179.5 73.25L183.5 72.5L193.5 71.5L210.75 70.25L214.25 69.75L216.75 68.75L219.5 67L222.5 64.25L226 60.5L228.75 57L233.25 51.5L234.75 50Z" fill="black"/>
<path d="M249.25 161.5H255L258 162.25L261 163.5L264.25 165.75L266 167.5L268.25 170.75L269.75 173.75L270.75 177.5V182.25L269.75 186.25L267.75 190.25L265.5 193L263.5 194.75L260.75 196.5L257 198L255.75 198.25H248.75L245.75 197.5L241.75 195.5L239.5 193.75L237.5 191.75L235.75 189L234.5 186.25L233.5 182.25V177.5L234.5 173.5L236.25 170L238.5 167L240.75 165L244.25 163L247.75 161.75L249.25 161.5Z" fill="black"/>
<path d="M279 162H292L296.25 162.5L300.75 164L303.25 165.5L305.75 167.75L307.5 170L309.5 174L310 176V183.25L309 186.75L307.25 190L304.5 193L302 194.75L298.25 196.5L294 197.5L287.5 198H280.5L278.75 197.75V162.25L279 162Z" fill="black"/>
<path d="M200.75 162H216L219.5 162.75L222.25 164.5L224.25 167L225 168.75L225.25 170V173.25L224.5 175.5L223 177.75L222.25 178.25L222.5 179.25L224.75 181L226.25 183.25L227 185.25V189.25L226 192L224.5 194.25L222.25 196L220 197L216 197.75H200.75V162Z" fill="black"/>
<path d="M80.5 211.5H87L88 212.75L93.25 221.5L97.25 228L97.5 229L98.75 227.75L101.75 222.75L104.75 218L108.5 211.75L109 211.5H115.75V246L113.25 246.25H109.5L109 246V224L108 225L105.5 229.25L102 235L100 238L99.25 238.75H96.75L95.25 237L91.5 231L87.75 224.75L87.25 224L87 243L86.75 246L86.25 246.25H82L80.25 246V211.75L80.5 211.5Z" fill="black"/>
<path d="M265 211.25H269.25L270.5 212L274 216.75L280.5 225.75L283.5 229.75L286 233.25L286.25 234H287L286.75 233.5V211.5H293.5L293.75 241.25L293.5 246L292.75 246.25H289L287.5 245.75L285.25 243.25L282 238.75L278.5 234.25L275 229.5L271 224L270.75 223.75V246L270.5 246.25H264.5L264 246V211.5L265 211.25Z" fill="black"/>
<path d="M137.5 162H143.75L144 165.75V197.75H137L136.75 182.5H121.25V197.75L120.75 198H114.5L114.25 197.75V181.25L114.5 162.25H121.25V176.25L131 176H136.75L137 162.25L137.5 162Z" fill="black"/>
<path d="M244.25 211L245.5 211.5L248.25 218.25L250 222.75L251.5 227L254.75 235.25L257.5 242.5L258.75 246L254.5 246.25L251.5 246L250.25 243L249 239.25L248.75 239H235L233.5 242.75L232.25 246L229.5 246.25H226.5L225 246L226.25 242.75L229.5 234.5L233 225.5L237 215.25L238.5 211.5L238.75 211.25L244.25 211Z" fill="black"/>
<path d="M213.25 211.25H219.25L219.5 211.5V246L219.25 246.25H212.75V231.5L197.75 231.75V246L194.5 246.25H191.5L190.75 246V239.5L191 211.5H197.5V225.25H212.75V211.5L213.25 211.25Z" fill="black"/>
<path d="M167.5 162H176.25L176.75 162.25V167.75L176.5 168L160.5 168.5V176.5L175 176.75V182.25L174.75 182.75L162.25 183L160.5 182.75V191.5H176.75V197.75L175.25 198H153.75V162.25L167.5 162Z" fill="black"/>
<path d="M124.25 211.5H146.5V217.5L146.25 217.75H131L131.25 225.75H145L145.25 226V228.5L145 231.75L144.75 232H131V240H146.75V246L143.5 246.25H124.25L124 246V211.75L124.25 211.5Z" fill="black"/>
<path d="M329.75 211H335.75L339.25 212L342.5 213.75L345.75 216.5L347.25 218.5L347 219.75L342.5 222.25L341.5 221.75L339.75 219.75L337.5 218.25L335.5 217.5L334 217.25H331.5L328.25 218.25L326 219.75L324 222.25L322.75 225L322.25 227.5V230.5L323.25 234L324.75 236.5L326.5 238.25L329.5 239.75L330.5 240H335L338 239L340.75 237L342 235.5L343.25 236L347 238.25L347.25 239L346.25 240.5L344 242.75L340.5 245L338 246L334.5 246.75H331L327 245.75L324.75 244.75L321.75 243L318.75 240L316.75 236.5L315.75 234L315 230.5V227.25L315.75 223.5L317 220.5L318.75 217.5L320.5 215.5L323.5 213.25L326.75 211.75L329.75 211Z" fill="black"/>
<path d="M166.25 211H172L175.75 212L179.25 214L182.25 216.75L183.5 218.5V219.5L179.5 221.75L178.25 222.25L175.5 219.25L172.75 217.75L170.5 217.25H167.75L165.25 218L162.75 219.5L160.75 221.75L159.25 224.75L159 225.75V231.75L160 234.5L161.5 236.75L163.75 238.75L167 240H171.5L174.25 239L176.5 237.5L178.25 235.75L179.5 236L183.25 238.25L183.75 239L182.25 241L180 243L176.75 245L173.5 246.25L171.25 246.75H167.25L163.5 245.75L159.5 243.75L157.25 242L155 239.5L153 236L152 233L151.75 231.75V225.75L152.5 222.75L154.5 218.75L156.5 216L159 213.75L162.5 212L166.25 211Z" fill="black"/>
<path d="M249.75 168H254.5L257.25 169L259.5 170.5L261.5 172.5L263 175.5L263.75 178.75V180.75L263.25 183.75L261.75 186.75L259.5 189.25L257.25 190.75L254.75 191.75L253.5 192H250.75L248 191.25L245.5 190L243.5 188.25L241.75 185.5L240.75 182.5L240.5 181V178.5L241.25 175.5L242.75 172.75L245 170.25L246.75 169L249.75 168Z" fill="#FDF6F0"/>
<path d="M313.5 162H321.5L325.75 169.25L328.5 173.75L329.75 175.75L333.25 170.25L337.25 163.5L338.25 162H345.75L345.25 163.5L343 167.25L338.75 174.25L335.5 179.5L333.5 182.75L333.25 195.5L333 198H326.25L326 197.75V183.5L325.5 181.75L323.25 178.25L319.5 172.25L313.5 162.75V162Z" fill="black"/>
<path d="M80 162.25H107.25V165.75L107 168.25L97 168.5V197.75L96.75 198H90.25L90 197.75L90.25 168.5H80.5L80 168.25V162.25Z" fill="black"/>
<path d="M285.75 168.25H290.75L295 168.75L297.75 169.75L300.25 171.5L301.75 173.75L302.75 176.5L303 177.75V181.5L302.25 184.5L301 186.75L299.5 188.5L297.75 189.75L294.25 191L292.5 191.25H285.75L285.5 173.25L285.75 168.25Z" fill="#FDF6F0"/>
<path d="M168.5 138.75H174.5L182.75 139.75L191.75 141.5L198.75 143.25L207.5 146L214.75 148.75L219 150.75L219.5 152.25L219.25 153L218.75 153.25H215.25L209.75 152L200.25 149L192.75 147L186.75 145.75L178.5 144.5L169.75 143.5L168.25 143L167.5 142V140.25L168.25 139L168.5 138.75Z" fill="black"/>
<path d="M301.75 211.5H308.25L308.5 211.75V246L307.5 246.25H302L301.75 246V211.5Z" fill="black"/>
<path d="M207.75 182.25H213.5L216.5 182.5L218.5 183.5L219.75 185L220 185.75V187.75L219.25 189.5L218 190.75L216.5 191.5L214.5 191.75H207.75L207.5 191.5V186L207.75 182.25Z" fill="#FDF6F0"/>
<path d="M116.5 266.75L117.75 267V280.25L117.5 280.5H115.75L115.5 280.25L115.25 272.75L113.5 275.25L112 277.5L111 278L109 275.25L107.25 272.75L107 280.25H104.5L104.25 280V271.25L104.5 267H106.75L108.5 269.5L110.5 272.75L111 273.75H111.5L113.75 270.25L115.75 267.5L116.5 266.75Z" fill="black"/>
<path d="M252.5 267.25H258L260.25 268L261.5 269.5L261.75 270.5V272.5L260.75 274L259.75 275H259.25L260.5 277.25L262.75 279.75L262.5 280.25L260.5 280L259 278.25L257.5 276.25L256.75 275.5H255.25L255 280H252.5V267.25Z" fill="black"/>
<path d="M282.25 267H287.75L290.25 268L291.5 269.5L291.75 270.5V272.5L290.75 274.25L289 275.5L287.5 275.75H284.5V280L282.5 280.25L282.25 280V267Z" fill="black"/>
<path d="M207.75 168H214.75L216.5 168.75L218 170.5L218.25 171.25V173L217.5 174.75L216 176L213 176.5H207.75L207.5 176.25V170.5L207.75 168Z" fill="#FDF6F0"/>
<path d="M127 266.75L128.5 267L129.75 269L131.75 273.75L133.5 278.5L133.75 280.25H131.75L131 279.5L130.25 277.75L129.5 277.5L128 277.75L125.5 277.5L124.25 280L124 280.25H121.75L122 279L123.75 274.5L125.75 269.75L126.75 267L127 266.75Z" fill="black"/>
<path d="M167.75 266.75L169.5 267.25L172 273L174.25 279L174.5 280L174.25 280.25H172.5L171.75 279.75L170.25 277L169.25 277.5L167.25 277.25L166.25 277L164.75 280L164 280.25H162.25L162.5 279L164 275.5L166.5 269.25L167.75 266.75Z" fill="black"/>
<path d="M271.75 266.75L273 267L274.75 270.75L278 279.5V280.25L275.75 280L274.25 277.25L272 277.5L270.25 277.25L269.25 278.25L268.75 279.75L266.25 280.5L266 279.75L268.75 273L271 267.5L271.75 266.75Z" fill="black"/>
<path d="M181.75 267H184L186.5 268L187.75 269.25L187.5 270L186.25 270.25L184.25 269L182.5 268.75L180.5 269.75L179.25 271.5L179 272.25V274.75L180 276.75L181.75 278.25L183.75 278.5L185.75 277.5L187.25 275.5L187.75 273.75L186.75 274.75L185.75 275.25L184.75 275L183.75 275.5L183.25 275.25L183 273.75L183.5 273.5L188.75 273.25L189 273.5V275.5L188.25 277.5L186.25 279.5L184.5 280.25H181.25L179.25 279.25L177.25 277L176.5 274.75V272.75L177.5 270.25L179.25 268.25L180.75 267.25L181.75 267Z" fill="black"/>
<path d="M242 220.25L242.75 221L244 224.75L246.75 232.5H237.25L238 230.25L241.75 220.5L242 220.25Z" fill="#FDF6F0"/>
<path d="M224.75 267.25H226.75L226.5 272.5H232.5V267.25H234.75V280H232.5V277L232.75 274.25H226.75L226.5 280H224.5L224.75 268V267.25Z" fill="black"/>
<path d="M305.25 267H308.25L310.5 268.5L310 270H308.75L308.25 269H305.75L304.75 270.25L305 271.25L306.25 272L309.5 273.25L311.25 274.75L311.5 275.25V277.5L310.5 279L309.25 280L307.75 280.5H306L304.25 279.75L302.5 278.25L302.75 277.25L304.25 277L305 277.25V278H308L309 277L308.5 275.5L304.5 274L303 272.75L302.5 271.75V269.75L303.5 268L305.25 267Z" fill="black"/>
<path d="M141.25 266.75L143.5 267.25L145 268.5L144.75 269.75L143.5 270L142.25 269L140.75 268.75L139.5 270.25H139L139.25 271.25L140.25 271.75L144 273.25L145.75 274.5L146 275V277.75L144.25 279.75L142.5 280.5L140 280.25L138 279.25V278.75L137.25 278.5V277.5L137.75 277.25H139.75V278H142.75L143.75 276.75L143.5 275.75L141.75 275L139.25 274L137.75 272.75L137.25 272V269.75L138.25 268.25L139.75 267L141.25 266.75Z" fill="black"/>
<path d="M153.75 266.75L156 267L157.75 268.25L158 269L157.25 270L156.25 269.75L155.5 269L153.25 268.5L152.75 270L152.5 271.25L153.5 272L157 273.25L158.75 274.75L159 277.25L158.25 278.75L156.75 280L154 280.5L152.25 279.75L150.25 278.5L150.5 277.25H152.5L153 278L155.25 278.25L156.5 277.25V275.75L154.25 274.75L151.25 273.25L150.25 272L150 270.25L151.25 268L152.5 267L153.75 266.75Z" fill="black"/>
<path d="M193.25 267.25H201.75V268.5L201.5 268.75H195.5L195.75 270V272.75H201V274.25L200 274.5L195.75 274.25V277L195.5 278.25H201.75V279.5L200.5 279.75L193.5 280L193.25 271.25V267.25Z" fill="black"/>
<path d="M315.75 267H323.75L324.25 267.25V269L323.5 269.5H321L320.75 279.75L320.25 280.25H318.25V269.5H314.75L314.25 269V267.25L315.75 267Z" fill="black"/>
<path d="M240.25 267.25H248.25V268.75H242L242.25 269.25V272.25L242 272.75H248V274.25L246.75 274.5H242V278.5L244.75 278.25H248.25L248.5 279.5L248 279.75L243.25 280H240.5L240.25 272.5V267.25Z" fill="black"/>
<path d="M295.5 267H297.75L298 269.25V280L297.75 280.25H295.5L295.25 280V267.25L295.5 267Z" fill="black"/>
<path d="M213 267.25H220.75V268.5L220.5 268.75L216.5 269V280H214.5L214.75 269H211L210.75 268.75V267.5L213 267.25Z" fill="black"/>
<path d="M255 269H258L259.75 269.75L260.25 271.75L259.5 273L258.25 273.5H255.75L255 273.25L254.75 269.25L255 269Z" fill="#FDF6F0"/>
<path d="M284.75 269.25H287.75L289 270L289.25 270.25V272.75L288.25 273.5L287.5 273.75H285.25L284.75 273.5V269.25Z" fill="#FDF6F0"/>
<path d="M272 270.25L272.75 271.25L273.75 274.25V275.25L270.75 275.5L270.25 275.25L271 272.5L272 270.25Z" fill="#FDF6F0"/>
<path d="M168.25 270.25L169 271L170 274.5V275.25L166.75 275.5L166.5 275L168 270.5L168.25 270.25Z" fill="#FDF6F0"/>
<path d="M127.5 270.75L128.25 271L129.5 274.5V275.25H126.25L126.5 273.5L127.5 270.75Z" fill="#FDF6F0"/>
</g>
<defs>
<clipPath id="clip0_6_31">
<rect width="447" height="353" fill="white"/>
</clipPath>
</defs>
</svg>
